<?xml version="1.0" encoding="utf-8"?>
<!-- Generator: Adobe Adobe Illustrator 29.2.0, SVG Export Plug-In . SVG Version: 6.00 Build 0)  -->
<svg version="1.1" id="Layer_1" xmlns="http://www.w3.org/2000/svg" xmlns:xlink="http://www.w3.org/1999/xlink" x="0px" y="0px"
	 width="490px" height="72.01px" viewBox="0 0 490 72.01" style="enable-background:new 0 0 490 72.01;" xml:space="preserve">
<style type="text/css">
	.st0{fill:#E9E8E5;}
	.st1{fill:none;}
	.st2{fill:#E9E8E5;}
	.st3{font-family:'Merriweather-Bold';}
	.st4{font-size:69px;}
	.st5{fill-rule:evenodd;clip-rule:evenodd;fill:#E9E8E5;}
</style>
<path id="path4" class="st0" d="M81.95,58.77c-2.08,0-4.02-0.44-5.8-1.31c-1.77-0.89-3.2-2.19-4.28-3.92
	c-1.07-1.74-1.61-3.86-1.61-6.38c0-2.18,0.59-4.07,1.77-5.67c1.19-1.6,2.82-2.92,4.89-3.95c2.08-1.03,4.49-1.81,7.23-2.33
	c2.74-0.52,5.68-0.79,8.83-0.81v-1.77c0-1.78-0.19-3.21-0.56-4.28c-0.36-1.07-1.07-1.85-2.11-2.34c-1.04-0.5-2.56-0.75-4.55-0.75
	c-2.68,0-5.01,0.38-7,1.14c-1.99,0.76-3.54,1.42-4.64,1.97l-2.22-4.5c0.55-0.47,1.62-1.11,3.2-1.94c1.58-0.83,3.51-1.59,5.78-2.27
	c2.28-0.69,4.75-1.03,7.41-1.03c3.53,0,6.31,0.51,8.33,1.52c2.03,1,3.48,2.54,4.34,4.61c0.86,2.06,1.3,4.69,1.3,7.88v21.11h3.78
	v3.89c-0.53,0.14-1.3,0.28-2.3,0.44c-0.99,0.17-2.05,0.31-3.17,0.42c-1.11,0.11-2.14,0.17-3.06,0.17c-1.57,0-2.63-0.23-3.17-0.69
	c-0.54-0.47-0.81-1.41-0.81-2.81v-1.83c-0.57,0.67-1.41,1.43-2.5,2.3c-1.08,0.86-2.39,1.6-3.92,2.22
	C85.58,58.46,83.86,58.77,81.95,58.77z M86.45,53.02c1,0,2.11-0.29,3.33-0.86c1.23-0.58,2.3-1.29,3.2-2.12V38.66
	c-2.9,0-5.25,0.35-7.06,1.05c-1.81,0.69-3.14,1.6-3.98,2.73c-0.84,1.14-1.27,2.38-1.27,3.73c0,1.51,0.24,2.78,0.73,3.8
	c0.5,1.01,1.18,1.77,2.05,2.28C84.32,52.76,85.32,53.02,86.45,53.02z M124.9,58.77c-2.06,0-4-0.38-5.81-1.12s-3.42-1.89-4.81-3.42
	c-1.4-1.54-2.49-3.52-3.28-5.94c-0.78-2.42-1.17-5.29-1.17-8.62c0-3.78,0.78-7.28,2.33-10.48c1.56-3.22,3.88-5.8,6.94-7.75
	c3.06-1.96,6.81-2.94,11.25-2.94c0.93,0,1.81,0.05,2.66,0.16s1.62,0.25,2.34,0.44V7.33l-6.8-0.94V2.5l14.31-1.31h0.25l1.94,1.45
	v51.13h3.7v3.95c-0.99,0.21-2.26,0.43-3.8,0.67c-1.53,0.25-3.02,0.38-4.45,0.38c-1.36,0-2.4-0.21-3.09-0.64
	c-0.69-0.43-1.03-1.42-1.03-2.97v-1.94c-0.76,1.04-1.74,1.98-2.94,2.81c-1.19,0.82-2.52,1.48-3.98,1.98
	C127.99,58.52,126.47,58.77,124.9,58.77z M128.54,53.02c1.06,0,2.04-0.16,2.92-0.48c0.9-0.33,1.67-0.74,2.33-1.23
	c0.66-0.5,1.17-0.99,1.55-1.48V24.63c-0.32-0.47-0.99-0.87-2.02-1.2c-1.02-0.33-2.13-0.5-3.33-0.5c-1.8,0-3.43,0.51-4.89,1.52
	c-1.46,1-2.62,2.65-3.48,4.94c-0.86,2.28-1.32,5.34-1.36,9.17c-0.05,3.43,0.29,6.2,1.03,8.33c0.74,2.12,1.74,3.68,3,4.67
	C125.55,52.53,126.97,53.02,128.54,53.02L128.54,53.02z M170.83,58.77c-4.21,0-7.65-0.85-10.31-2.56c-2.67-1.72-4.63-4.09-5.89-7.11
	c-1.26-3.03-1.89-6.5-1.89-10.41c0-3.14,0.45-5.95,1.34-8.45c0.91-2.5,2.18-4.62,3.81-6.36c1.65-1.75,3.61-3.08,5.89-4
	c2.29-0.93,4.82-1.39,7.59-1.39c4.7,0,8.28,1.22,10.75,3.67c2.48,2.45,3.78,5.88,3.89,10.3c0,1.5-0.05,2.81-0.14,3.94
	c-0.09,1.11-0.23,2.09-0.42,2.92h-22.5c0.07,2.08,0.35,3.94,0.84,5.58c0.5,1.62,1.19,3.02,2.08,4.17c0.9,1.16,1.98,2.04,3.27,2.64
	c1.28,0.59,2.77,0.89,4.45,0.89c1.9,0,3.8-0.33,5.7-0.98c1.91-0.67,3.38-1.35,4.42-2.06l1.73,3.78c-0.74,0.78-1.86,1.59-3.36,2.44
	c-1.5,0.84-3.23,1.56-5.19,2.14C174.96,58.48,172.93,58.77,170.83,58.77L170.83,58.77z M162.92,35.09h13.31
	c0.02-0.47,0.05-0.95,0.08-1.45c0.04-0.51,0.06-1.01,0.06-1.5c0-2.75-0.45-4.97-1.36-6.66c-0.9-1.69-2.48-2.53-4.75-2.53
	c-1.01,0-1.94,0.19-2.8,0.56c-0.85,0.36-1.61,0.99-2.28,1.89c-0.66,0.89-1.18,2.11-1.58,3.69
	C163.22,30.67,162.99,32.67,162.92,35.09L162.92,35.09z M194.7,53.22V26.08l-4.39-1.28v-4.83l11.58-1.38h0.2l1.7,1.34v2.67
	l-0.08,1.66c0.97-0.9,2.2-1.77,3.69-2.62c1.5-0.85,3.15-1.56,4.94-2.12c1.79-0.57,3.63-0.86,5.52-0.86c2.8,0,5.05,0.51,6.75,1.53
	c1.7,1.01,2.93,2.64,3.69,4.89c0.76,2.24,1.14,5.18,1.14,8.83v19.34l4.23,0.56V58h-17.95v-4.16l3.7-0.59V34.11
	c0-2.28-0.19-4.11-0.58-5.5c-0.38-1.39-1.03-2.4-1.95-3.05c-0.92-0.66-2.19-0.98-3.81-0.98c-1.08,0-2.15,0.19-3.19,0.56
	c-1.04,0.36-2.01,0.81-2.89,1.34c-0.89,0.53-1.66,1.04-2.31,1.53v25.2l4.17,0.62V58h-18.17v-4.16L194.7,53.22z M260.5,23.95
	l-14.42,0.53l-1.88,6.75h-5.02V19.48h30.64l1.62,3.61l-18.5,25.55l-4.83,4.95l14.98-0.72l3.91-7.98l4.75,0.56L270.28,58h-31.89
	l-1.77-3.81l18.89-25L260.5,23.95z M287.78,58.77c-2.08,0-4.02-0.44-5.8-1.31c-1.77-0.89-3.2-2.19-4.28-3.92
	c-1.07-1.74-1.61-3.86-1.61-6.38c0-2.18,0.59-4.07,1.77-5.67c1.19-1.6,2.82-2.92,4.89-3.95c2.08-1.03,4.49-1.81,7.23-2.33
	c2.74-0.52,5.68-0.79,8.83-0.81v-1.77c0-1.78-0.19-3.21-0.56-4.28c-0.36-1.07-1.07-1.85-2.11-2.34c-1.04-0.5-2.56-0.75-4.55-0.75
	c-2.68,0-5.01,0.38-7,1.14c-1.99,0.76-3.54,1.42-4.64,1.97l-2.22-4.5c0.55-0.47,1.62-1.11,3.2-1.94c1.58-0.83,3.51-1.59,5.78-2.27
	c2.28-0.69,4.75-1.03,7.41-1.03c3.53,0,6.31,0.51,8.33,1.52c2.03,1,3.48,2.54,4.34,4.61c0.86,2.06,1.3,4.69,1.3,7.88v21.11h3.78
	v3.89c-0.53,0.14-1.3,0.28-2.3,0.44c-0.99,0.17-2.05,0.31-3.17,0.42c-1.11,0.11-2.14,0.17-3.06,0.17c-1.57,0-2.63-0.23-3.17-0.69
	c-0.54-0.47-0.81-1.41-0.81-2.81v-1.83c-0.57,0.67-1.41,1.43-2.5,2.3c-1.08,0.86-2.39,1.6-3.92,2.22
	C291.42,58.46,289.7,58.77,287.78,58.77z M292.28,53.02c1,0,2.11-0.29,3.33-0.86c1.23-0.58,2.3-1.29,3.2-2.12V38.66
	c-2.9,0-5.25,0.35-7.06,1.05c-1.81,0.69-3.14,1.6-3.98,2.73c-0.84,1.14-1.27,2.38-1.27,3.73c0,1.51,0.24,2.78,0.73,3.8
	c0.5,1.01,1.18,1.77,2.05,2.28C290.16,52.76,291.16,53.02,292.28,53.02z M332.53,58v-4.16l5.45-0.7V11.72l-5.34-0.89V6.48h22.25
	v4.34l-6.66,0.89v41.36l14.7-0.66l4.89-12.97l5.12,0.77L370.79,58H332.53z M389.17,58.77c-2.08,0-4.02-0.44-5.8-1.31
	c-1.77-0.89-3.2-2.19-4.28-3.92c-1.07-1.74-1.61-3.86-1.61-6.38c0-2.18,0.59-4.07,1.77-5.67c1.19-1.6,2.82-2.92,4.89-3.95
	c2.08-1.03,4.49-1.81,7.23-2.33c2.74-0.52,5.68-0.79,8.83-0.81v-1.77c0-1.78-0.19-3.21-0.56-4.28c-0.36-1.07-1.07-1.85-2.11-2.34
	c-1.04-0.5-2.56-0.75-4.55-0.75c-2.68,0-5.01,0.38-7,1.14c-1.99,0.76-3.54,1.42-4.64,1.97l-2.22-4.5c0.55-0.47,1.62-1.11,3.2-1.94
	c1.58-0.83,3.51-1.59,5.78-2.27c2.28-0.69,4.75-1.03,7.41-1.03c3.53,0,6.31,0.51,8.33,1.52c2.03,1,3.48,2.54,4.34,4.61
	c0.86,2.06,1.3,4.69,1.3,7.88v21.11h3.78v3.89c-0.53,0.14-1.3,0.28-2.3,0.44c-0.99,0.17-2.05,0.31-3.17,0.42
	c-1.11,0.11-2.14,0.17-3.06,0.17c-1.57,0-2.63-0.23-3.17-0.69c-0.54-0.47-0.81-1.41-0.81-2.81v-1.83c-0.57,0.67-1.41,1.43-2.5,2.3
	c-1.08,0.86-2.39,1.6-3.92,2.22C392.81,58.46,391.09,58.77,389.17,58.77z M393.67,53.02c1,0,2.11-0.29,3.33-0.86
	c1.23-0.58,2.3-1.29,3.2-2.12V38.66c-2.9,0-5.25,0.35-7.06,1.05c-1.81,0.69-3.14,1.6-3.98,2.73c-0.84,1.14-1.27,2.38-1.27,3.73
	c0,1.51,0.24,2.78,0.73,3.8c0.5,1.01,1.18,1.77,2.05,2.28C391.55,52.76,392.55,53.02,393.67,53.02z M414.2,6.31V2.7l12.69-1.52h0.14
	l2.02,1.25v20.45c0.74-0.74,1.63-1.44,2.67-2.11c1.05-0.68,2.24-1.23,3.58-1.66c1.33-0.43,2.76-0.64,4.28-0.64
	c2.73,0,5.22,0.64,7.48,1.92c2.27,1.28,4.08,3.32,5.44,6.11c1.36,2.78,2.05,6.42,2.05,10.92c0,2.99-0.47,5.78-1.41,8.38
	c-0.93,2.58-2.28,4.84-4.06,6.78s-3.94,3.45-6.48,4.55c-2.54,1.08-5.41,1.62-8.59,1.62c-2.77,0-5.2-0.17-7.28-0.52
	c-2.08-0.33-3.75-0.71-5-1.14c-1.24-0.43-2.01-0.76-2.31-0.98V7.19L414.2,6.31z M435.83,24.58c-1.01,0-1.95,0.16-2.83,0.48
	c-0.86,0.32-1.64,0.73-2.33,1.22c-0.68,0.49-1.22,0.95-1.62,1.39v25.23c0.25,0.53,0.89,0.96,1.91,1.28
	c1.03,0.32,2.18,0.48,3.45,0.48c1.9,0,3.57-0.59,5.02-1.78s2.58-2.97,3.39-5.34c0.82-2.39,1.26-5.39,1.31-9
	c0.04-3.32-0.3-6.01-1.03-8.05c-0.73-2.05-1.73-3.55-3-4.5S437.4,24.58,435.83,24.58L435.83,24.58z M474.31,58.77
	c-2.18,0-4.2-0.19-6.08-0.56c-1.86-0.36-3.51-0.77-4.94-1.22c-1.42-0.46-2.53-0.8-3.34-1.03v-9.08h5.8l1.59,5.41
	c0.23,0.36,0.68,0.73,1.34,1.09c0.68,0.35,1.47,0.64,2.38,0.86c0.92,0.22,1.84,0.33,2.77,0.33c1.52,0,2.76-0.2,3.7-0.61
	c0.95-0.42,1.65-0.99,2.11-1.73c0.47-0.74,0.7-1.57,0.7-2.5c0-1.25-0.47-2.3-1.41-3.14s-2.21-1.64-3.81-2.38
	c-1.6-0.74-3.46-1.56-5.56-2.45c-2.03-0.89-3.76-1.89-5.19-3c-1.42-1.12-2.49-2.44-3.22-3.95c-0.73-1.52-1.09-3.31-1.09-5.36
	c0-2.1,0.61-3.96,1.84-5.58c1.24-1.62,2.98-2.9,5.23-3.83c2.26-0.94,4.91-1.41,7.94-1.41c2.24,0,4.17,0.15,5.78,0.45
	c1.61,0.29,2.97,0.61,4.06,0.95c1.1,0.33,2.01,0.56,2.7,0.67v9.11h-5.45l-1.62-5.27c-0.19-0.3-0.53-0.59-1.03-0.86
	c-0.49-0.28-1.09-0.51-1.81-0.67c-0.72-0.18-1.51-0.27-2.36-0.27c-1.24,0-2.33,0.19-3.27,0.56c-0.94,0.36-1.66,0.89-2.16,1.58
	c-0.5,0.68-0.75,1.47-0.75,2.39c0,1.4,0.42,2.53,1.25,3.39c0.83,0.86,1.93,1.61,3.3,2.23c1.36,0.62,2.8,1.25,4.3,1.88
	c1.48,0.62,2.93,1.3,4.34,2.03c1.43,0.72,2.71,1.55,3.86,2.48c1.15,0.94,2.05,2.05,2.72,3.34c0.67,1.29,1,2.83,1,4.61
	c0,2.16-0.57,4.11-1.7,5.86c-1.12,1.74-2.85,3.12-5.17,4.14C480.74,58.26,477.82,58.77,474.31,58.77L474.31,58.77z"/>
<g>
	<rect x="330.05" y="-2.12" class="st1" width="164.44" height="74.13"/>
	<rect x="68.52" y="1.36" class="st1" width="247" height="65.54"/>
	<g>
		<g>
			<path class="st5" d="M49.76,1.47H16c-8.84,0-16,7.16-16,16v33.54c0,8.84,7.16,16,16,16h33.76c8.84,0,16-7.16,16-16V17.47
				C65.76,8.63,58.6,1.47,49.76,1.47z M47.46,19.04h-0.43c-4.82-4.04-9.91-6.06-15.26-6.06c-4.88,0-8.75,1.7-11.6,5.09
				c-2.85,3.39-4.28,8.11-4.28,14.13c0,5.99,1.45,10.67,4.35,14.04c2.9,3.37,6.76,5.06,11.58,5.06c2.6,0,5.09-0.42,7.44-1.25
				c2.36-0.83,4.94-2.46,7.75-4.88h0.43v6.77c-3.94,1.87-7,3.04-9.18,3.51c-2.18,0.47-4.24,0.71-6.17,0.71
				c-6.93,0-12.36-2.09-16.29-6.28c-3.93-4.18-5.89-10.08-5.89-17.69c0-7.46,1.99-13.34,5.98-17.63c3.99-4.29,9.4-6.43,16.23-6.43
				c4.9,0,10.01,1.38,15.32,4.15V19.04z M51.71,49.27c-1.27,0-2.29-1.03-2.29-2.29s1.03-2.29,2.29-2.29S54,45.71,54,46.98
				S52.98,49.27,51.71,49.27z"/>
		</g>
	</g>
</g>
</svg>
